<svg xmlns="http://www.w3.org/2000/svg" width="1200" height="630" aria-labelledby="ogTitle ogDesc" viewBox="0 0 1200 630"><title id="ogTitle">Web Scraping Tools - YouTube Transcript &amp; Data Extraction APIs</title><desc id="ogDesc">56+ production-ready Apify Actors for web scraping, YouTube transcript extraction, SERP scraping, Google Maps data extraction, and e-commerce automation.</desc><defs><linearGradient id="bgGrad" x1="0%" x2="100%" y1="0%" y2="100%"><stop offset="0%" stop-color="#fbf7f1"/><stop offset="50%" stop-color="#f7f1e8"/><stop offset="100%" stop-color="#efe6d8"/></linearGradient><linearGradient id="primaryGrad" x1="0%" x2="100%" y1="0%" y2="100%"><stop offset="0%" stop-color="#f97316"/><stop offset="100%" stop-color="#fb923c"/></linearGradient><filter id="shadow" width="200%" height="200%" x="-50%" y="-50%"><feDropShadow dx="0" dy="4" flood-color="#1d2b36" flood-opacity=".08" stdDeviation="20"/></filter></defs><path fill="url(#bgGrad)" d="M0 0h1200v630H0z"/><circle cx="-60" cy="100" r="280" fill="#f97316" fill-opacity=".08"/><circle cx="1300" cy="50" r="320" fill="#0f766e" fill-opacity=".06"/><circle cx="1100" cy="580" r="240" fill="#1d2b36" fill-opacity=".04"/><circle cx="600" cy="650" r="400" fill="#f97316" fill-opacity=".03"/><g opacity=".04"><defs><pattern id="grid" width="60" height="60" patternUnits="userSpaceOnUse"><path fill="none" stroke="#1d2b36" d="M60 0H0v60"/></pattern></defs><path fill="url(#grid)" d="M0 0h1200v630H0z"/></g><rect width="1080" height="510" x="60" y="60" fill="#fff" fill-opacity=".9" filter="url(#shadow)" rx="40"/><rect width="1080" height="510" x="60" y="60" fill="url(#bgGrad)" fill-opacity=".5" rx="40"/><rect width="100" height="100" x="120" y="120" fill="url(#primaryGrad)" rx="28"/><text x="170" y="182" fill="#fff" font-family="Sora, -apple-system, BlinkMacSystemFont, sans-serif" font-size="52" font-weight="700" text-anchor="middle">A</text><text x="250" y="160" fill="#0f172a" font-family="Sora, -apple-system, BlinkMacSystemFont, sans-serif" font-size="48" font-weight="700" letter-spacing="-.02em">Web Scraping Tools</text><text x="120" y="280" fill="#475569" font-family="Source Sans 3, -apple-system, sans-serif" font-size="32" font-weight="600">YouTube Transcript Extractor • SERP Scraper • Maps Data API</text><text x="120" y="340" fill="#64748b" font-family="Source Sans 3, -apple-system, sans-serif" font-size="26">56+ Production-ready Apify Actors for automated data extraction &amp; AI workflows</text><rect width="180" height="56" x="120" y="400" fill="#fef3c7" rx="28"/><text x="210" y="435" fill="#92400e" font-family="Sora, sans-serif" font-size="22" font-weight="600" text-anchor="middle">YouTube</text><rect width="140" height="56" x="320" y="400" fill="#dbeafe" rx="28"/><text x="390" y="435" fill="#1e40af" font-family="Sora, sans-serif" font-size="22" font-weight="600" text-anchor="middle">SEO</text><rect width="120" height="56" x="480" y="400" fill="#e0e7ff" rx="28"/><text x="540" y="435" fill="#3730a3" font-family="Sora, sans-serif" font-size="22" font-weight="600" text-anchor="middle">AI</text><rect width="140" height="56" x="620" y="400" fill="#d1fae5" rx="28"/><text x="690" y="435" fill="#065f46" font-family="Sora, sans-serif" font-size="22" font-weight="600" text-anchor="middle">Maps</text><rect width="200" height="56" x="780" y="400" fill="#fce7f3" rx="28"/><text x="880" y="435" fill="#9d174d" font-family="Sora, sans-serif" font-size="22" font-weight="600" text-anchor="middle">E-Commerce</text><rect width="180" height="80" x="900" y="120" fill="url(#primaryGrad)" filter="url(#shadow)" rx="20"/><text x="990" y="160" fill="#fff" font-family="Sora, sans-serif" font-size="36" font-weight="700" text-anchor="middle">56+</text><text x="990" y="185" fill="#fff" font-family="Source Sans 3, sans-serif" font-size="18" opacity=".9" text-anchor="middle">Actors</text><rect width="280" height="50" x="120" y="490" fill="#f1f5f9" rx="25"/><text x="260" y="522" fill="#475569" font-family="Source Sans 3, sans-serif" font-size="20" font-weight="600" text-anchor="middle">1M+ Total Runs</text><rect width="280" height="50" x="420" y="490" fill="#f1f5f9" rx="25"/><text x="560" y="522" fill="#475569" font-family="Source Sans 3, sans-serif" font-size="20" font-weight="600" text-anchor="middle">1,500+ Users</text><rect width="280" height="50" x="720" y="490" fill="#f1f5f9" rx="25"/><text x="860" y="522" fill="#475569" font-family="Source Sans 3, sans-serif" font-size="20" font-weight="600" text-anchor="middle">98.9% Success</text><text x="1080" y="590" fill="#94a3b8" font-family="Source Sans 3, sans-serif" font-size="18" text-anchor="end">akash9078.github.io/apify-actors</text></svg>